<mxfile host="app.diagrams.net" agent="Mozilla/5.0 (Windows NT 10.0; Win64; x64) AppleWebKit/537.36 (KHTML, like Gecko) Chrome/136.0.0.0 Safari/537.36 Edg/136.0.0.0" version="27.0.9">
  <diagram name="Page-1" id="97916047-d0de-89f5-080d-49f4d83e522f">
    <mxGraphModel dx="1378" dy="786" grid="1" gridSize="10" guides="1" tooltips="1" connect="1" arrows="1" fold="1" page="1" pageScale="1.5" pageWidth="1169" pageHeight="827" background="none" math="0" shadow="0">
      <root>
        <mxCell id="0" />
        <mxCell id="1" parent="0" />
        <mxCell id="y2R5sz9xZjE7NsHbt4tO-80" value="" style="whiteSpace=wrap;html=1;dashed=1;dashPattern=8 8;" vertex="1" parent="1">
          <mxGeometry x="789" y="301" width="700" height="319" as="geometry" />
        </mxCell>
        <mxCell id="y2R5sz9xZjE7NsHbt4tO-92" value="" style="whiteSpace=wrap;html=1;dashed=1;dashPattern=8 8;" vertex="1" parent="1">
          <mxGeometry x="439" y="301" width="330" height="319" as="geometry" />
        </mxCell>
        <mxCell id="y2R5sz9xZjE7NsHbt4tO-93" value="Área logada - perfil: admin" style="whiteSpace=wrap;html=1;strokeColor=none;align=left;" vertex="1" parent="1">
          <mxGeometry x="445" y="303" width="144" height="30" as="geometry" />
        </mxCell>
        <mxCell id="y2R5sz9xZjE7NsHbt4tO-78" value="" style="whiteSpace=wrap;html=1;dashed=1;dashPattern=8 8;" vertex="1" parent="1">
          <mxGeometry x="58" y="301" width="351" height="319" as="geometry" />
        </mxCell>
        <mxCell id="y2R5sz9xZjE7NsHbt4tO-79" value="Área não logada" style="whiteSpace=wrap;html=1;strokeColor=none;align=left;" vertex="1" parent="1">
          <mxGeometry x="65" y="303" width="100" height="30" as="geometry" />
        </mxCell>
        <mxCell id="3" value="Dashboard" style="rounded=1;fillColor=light-dark(#10739E,#D28F70);strokeColor=light-dark(#000000,#FCB99E);shadow=1;fontStyle=1;fontColor=#ffffff;fontSize=12;strokeWidth=1;imageHeight=24;imageWidth=24;flipV=1;" parent="1" vertex="1">
          <mxGeometry x="590" y="223" width="130" height="60" as="geometry" />
        </mxCell>
        <mxCell id="13" value="User List" style="rounded=1;fillColor=#1ba1e2;strokeColor=#006EAF;shadow=1;fontStyle=1;fontColor=#ffffff;fontSize=12;strokeWidth=1;flipV=0;" parent="1" vertex="1">
          <mxGeometry x="538" y="396" width="130" height="60" as="geometry" />
        </mxCell>
        <mxCell id="14" value="User Edit" style="rounded=1;fillColor=#1ba1e2;strokeColor=#006EAF;shadow=1;fontStyle=1;fontColor=#ffffff;fontSize=12;strokeWidth=1;flipV=0;" parent="1" vertex="1">
          <mxGeometry x="623" y="526" width="130" height="60" as="geometry" />
        </mxCell>
        <mxCell id="18" value="Customer List" style="rounded=1;fillColor=#76608a;strokeColor=#432D57;shadow=1;fontStyle=1;fontSize=12;strokeWidth=1;flipV=0;fontColor=#ffffff;" parent="1" vertex="1">
          <mxGeometry x="1034" y="396" width="130" height="60" as="geometry" />
        </mxCell>
        <mxCell id="19" value="Customer Edit" style="rounded=1;fillColor=#76608a;strokeColor=#432D57;shadow=1;fontStyle=1;fontSize=12;strokeWidth=1;flipV=0;fontColor=#ffffff;" parent="1" vertex="1">
          <mxGeometry x="1033" y="526" width="130" height="60" as="geometry" />
        </mxCell>
        <mxCell id="23" value="Quotation List" style="rounded=1;fillColor=#76608a;strokeColor=#432D57;shadow=1;fontStyle=1;fontSize=12;strokeWidth=1;flipV=0;fontColor=#ffffff;" parent="1" vertex="1">
          <mxGeometry x="1326" y="396" width="130" height="60" as="geometry" />
        </mxCell>
        <mxCell id="24" value="Quotation New" style="rounded=1;fillColor=#76608a;strokeColor=#432D57;shadow=1;fontStyle=1;fontSize=12;strokeWidth=1;flipV=0;fontColor=#ffffff;" parent="1" vertex="1">
          <mxGeometry x="1174" y="526" width="130" height="60" as="geometry" />
        </mxCell>
        <mxCell id="31" value="" style="edgeStyle=elbowEdgeStyle;elbow=vertical;strokeWidth=1;endArrow=block;endFill=1;fontStyle=1;strokeColor=#23445D;fontSize=12;entryX=0.5;entryY=0;entryDx=0;entryDy=0;" parent="1" source="3" target="y2R5sz9xZjE7NsHbt4tO-62" edge="1">
          <mxGeometry x="22" y="165.5" width="100" height="100" as="geometry">
            <mxPoint x="-159" y="359.5" as="sourcePoint" />
            <mxPoint x="220" y="396" as="targetPoint" />
          </mxGeometry>
        </mxCell>
        <mxCell id="37" value="" style="edgeStyle=elbowEdgeStyle;elbow=vertical;strokeWidth=1;endArrow=block;endFill=1;fontStyle=1;strokeColor=#23445D;fontSize=12;entryX=0.5;entryY=0;entryDx=0;entryDy=0;exitX=0.5;exitY=1;exitDx=0;exitDy=0;" parent="1" source="3" target="23" edge="1">
          <mxGeometry x="22" y="165.5" width="100" height="100" as="geometry">
            <mxPoint x="789" y="770" as="sourcePoint" />
            <mxPoint x="-59" y="1140.5" as="targetPoint" />
            <Array as="points">
              <mxPoint x="959" y="340" />
            </Array>
          </mxGeometry>
        </mxCell>
        <mxCell id="42" value="" style="edgeStyle=elbowEdgeStyle;elbow=vertical;strokeWidth=1;endArrow=block;endFill=1;fontStyle=1;strokeColor=#23445D;fontSize=12;exitX=0.5;exitY=1;exitDx=0;exitDy=0;entryX=0.5;entryY=0;entryDx=0;entryDy=0;" parent="1" source="13" target="14" edge="1">
          <mxGeometry x="62" y="165.5" width="100" height="100" as="geometry">
            <mxPoint x="-223" y="1240" as="sourcePoint" />
            <mxPoint x="-123" y="1340" as="targetPoint" />
          </mxGeometry>
        </mxCell>
        <mxCell id="46" value="" style="edgeStyle=elbowEdgeStyle;elbow=vertical;strokeWidth=1;endArrow=block;endFill=1;fontStyle=1;strokeColor=#23445D;fontSize=12;" parent="1" source="18" target="19" edge="1">
          <mxGeometry x="72" y="165.5" width="100" height="100" as="geometry">
            <mxPoint x="316" y="1363.5" as="sourcePoint" />
            <mxPoint x="416" y="1463.5" as="targetPoint" />
          </mxGeometry>
        </mxCell>
        <mxCell id="50" value="" style="edgeStyle=elbowEdgeStyle;elbow=vertical;strokeWidth=1;endArrow=block;endFill=1;fontStyle=1;strokeColor=#23445D;fontSize=12;exitX=0.5;exitY=1;exitDx=0;exitDy=0;entryX=0.5;entryY=0;entryDx=0;entryDy=0;" parent="1" source="18" target="24" edge="1">
          <mxGeometry x="72" y="165.5" width="100" height="100" as="geometry">
            <mxPoint x="316" y="1317" as="sourcePoint" />
            <mxPoint x="416" y="1417" as="targetPoint" />
          </mxGeometry>
        </mxCell>
        <mxCell id="55" value="" style="edgeStyle=elbowEdgeStyle;elbow=vertical;strokeWidth=1;endArrow=block;endFill=1;fontStyle=1;strokeColor=#23445D;fontSize=12;entryX=0.5;entryY=0;entryDx=0;entryDy=0;exitX=0.5;exitY=1;exitDx=0;exitDy=0;" parent="1" source="3" target="18" edge="1">
          <mxGeometry x="22" y="165.5" width="100" height="100" as="geometry">
            <mxPoint x="849" y="760" as="sourcePoint" />
            <mxPoint x="829" y="609" as="targetPoint" />
            <Array as="points">
              <mxPoint x="919" y="340" />
            </Array>
          </mxGeometry>
        </mxCell>
        <mxCell id="y2R5sz9xZjE7NsHbt4tO-55" value="User Create" style="rounded=1;fillColor=#1ba1e2;strokeColor=#006EAF;shadow=1;fontStyle=1;fontColor=#ffffff;fontSize=12;strokeWidth=1;flipV=0;" vertex="1" parent="1">
          <mxGeometry x="463" y="526" width="130" height="60" as="geometry" />
        </mxCell>
        <mxCell id="y2R5sz9xZjE7NsHbt4tO-56" value="" style="edgeStyle=elbowEdgeStyle;elbow=vertical;strokeWidth=1;endArrow=block;endFill=1;fontStyle=1;strokeColor=#23445D;entryX=0.5;entryY=0;entryDx=0;entryDy=0;exitX=0.5;exitY=1;exitDx=0;exitDy=0;fontSize=12;" edge="1" parent="1" source="13" target="y2R5sz9xZjE7NsHbt4tO-55">
          <mxGeometry x="22" y="165.5" width="100" height="100" as="geometry">
            <mxPoint x="415" y="989.5" as="sourcePoint" />
            <mxPoint x="55" y="823.5" as="targetPoint" />
          </mxGeometry>
        </mxCell>
        <mxCell id="y2R5sz9xZjE7NsHbt4tO-83" style="edgeStyle=orthogonalEdgeStyle;rounded=0;orthogonalLoop=1;jettySize=auto;html=1;exitX=1;exitY=0.5;exitDx=0;exitDy=0;startArrow=classic;startFill=1;" edge="1" parent="1" source="y2R5sz9xZjE7NsHbt4tO-62" target="y2R5sz9xZjE7NsHbt4tO-77">
          <mxGeometry relative="1" as="geometry" />
        </mxCell>
        <mxCell id="y2R5sz9xZjE7NsHbt4tO-62" value="Login" style="rounded=1;fillColor=#1BA1E2;strokeColor=default;shadow=1;gradientColor=none;fontStyle=1;fontColor=#FFFFFF;fontSize=12;strokeWidth=1;flipV=1;" vertex="1" parent="1">
          <mxGeometry x="78" y="396" width="130" height="60" as="geometry" />
        </mxCell>
        <mxCell id="y2R5sz9xZjE7NsHbt4tO-63" value="" style="edgeStyle=elbowEdgeStyle;elbow=vertical;strokeWidth=1;endArrow=block;endFill=1;fontStyle=1;strokeColor=#23445D;exitX=0.5;exitY=1;exitDx=0;exitDy=0;fontSize=12;entryX=0.5;entryY=0;entryDx=0;entryDy=0;" edge="1" parent="1" target="y2R5sz9xZjE7NsHbt4tO-77" source="3">
          <mxGeometry x="22" y="165.5" width="100" height="100" as="geometry">
            <mxPoint x="661" y="215" as="sourcePoint" />
            <mxPoint x="29" y="356.5" as="targetPoint" />
          </mxGeometry>
        </mxCell>
        <mxCell id="y2R5sz9xZjE7NsHbt4tO-77" value="Register" style="rounded=1;fillColor=#1BA1E2;strokeColor=default;shadow=1;gradientColor=none;fontStyle=1;fontColor=#FFFFFF;fontSize=12;strokeWidth=1;flipV=1;" vertex="1" parent="1">
          <mxGeometry x="258" y="396" width="130" height="60" as="geometry" />
        </mxCell>
        <mxCell id="y2R5sz9xZjE7NsHbt4tO-81" value="Área logada - perfil: todos" style="whiteSpace=wrap;html=1;strokeColor=none;align=left;" vertex="1" parent="1">
          <mxGeometry x="897" y="303" width="142" height="30" as="geometry" />
        </mxCell>
        <mxCell id="y2R5sz9xZjE7NsHbt4tO-86" value="Perfil" style="rounded=1;fillColor=#1ba1e2;strokeColor=#006EAF;shadow=1;fontStyle=1;fontColor=#ffffff;fontSize=12;strokeWidth=1;flipV=0;" vertex="1" parent="1">
          <mxGeometry x="808" y="396" width="130" height="60" as="geometry" />
        </mxCell>
        <mxCell id="y2R5sz9xZjE7NsHbt4tO-87" value="" style="edgeStyle=elbowEdgeStyle;elbow=vertical;strokeWidth=1;endArrow=block;endFill=1;fontStyle=1;strokeColor=#23445D;exitX=0.5;exitY=1;exitDx=0;exitDy=0;fontSize=12;entryX=0.5;entryY=0;entryDx=0;entryDy=0;" edge="1" parent="1" source="3" target="y2R5sz9xZjE7NsHbt4tO-86">
          <mxGeometry x="22" y="165.5" width="100" height="100" as="geometry">
            <mxPoint x="897" y="340" as="sourcePoint" />
            <mxPoint x="619" y="453" as="targetPoint" />
          </mxGeometry>
        </mxCell>
        <mxCell id="y2R5sz9xZjE7NsHbt4tO-94" value="" style="edgeStyle=elbowEdgeStyle;elbow=vertical;strokeWidth=1;endArrow=block;endFill=1;fontStyle=1;strokeColor=#23445D;exitX=0.5;exitY=1;exitDx=0;exitDy=0;fontSize=12;entryX=0.5;entryY=0;entryDx=0;entryDy=0;" edge="1" parent="1" source="3" target="13">
          <mxGeometry x="22" y="165.5" width="100" height="100" as="geometry">
            <mxPoint x="954" y="283" as="sourcePoint" />
            <mxPoint x="622" y="396" as="targetPoint" />
          </mxGeometry>
        </mxCell>
        <mxCell id="y2R5sz9xZjE7NsHbt4tO-95" value="Customer New" style="rounded=1;fillColor=#76608a;strokeColor=#432D57;shadow=1;fontStyle=1;fontSize=12;strokeWidth=1;flipV=0;fontColor=#ffffff;" vertex="1" parent="1">
          <mxGeometry x="891" y="526" width="130" height="60" as="geometry" />
        </mxCell>
        <mxCell id="y2R5sz9xZjE7NsHbt4tO-96" value="" style="edgeStyle=elbowEdgeStyle;elbow=vertical;strokeWidth=1;endArrow=block;endFill=1;fontStyle=1;strokeColor=#23445D;fontSize=12;exitX=0.5;exitY=1;exitDx=0;exitDy=0;entryX=0.5;entryY=0;entryDx=0;entryDy=0;" edge="1" parent="1" source="18" target="y2R5sz9xZjE7NsHbt4tO-95">
          <mxGeometry x="72" y="165.5" width="100" height="100" as="geometry">
            <mxPoint x="1154" y="480" as="sourcePoint" />
            <mxPoint x="1119" y="550" as="targetPoint" />
          </mxGeometry>
        </mxCell>
        <mxCell id="y2R5sz9xZjE7NsHbt4tO-97" value="Quotation Edit" style="rounded=1;fillColor=#76608a;strokeColor=#432D57;shadow=1;fontStyle=1;fontSize=12;strokeWidth=1;flipV=0;fontColor=#ffffff;" vertex="1" parent="1">
          <mxGeometry x="1326" y="526" width="130" height="60" as="geometry" />
        </mxCell>
        <mxCell id="y2R5sz9xZjE7NsHbt4tO-98" value="" style="edgeStyle=elbowEdgeStyle;elbow=vertical;strokeWidth=1;endArrow=block;endFill=1;fontStyle=1;strokeColor=#23445D;fontSize=12;exitX=0.5;exitY=1;exitDx=0;exitDy=0;entryX=0.5;entryY=0;entryDx=0;entryDy=0;" edge="1" parent="1" source="23" target="y2R5sz9xZjE7NsHbt4tO-97">
          <mxGeometry x="72" y="165.5" width="100" height="100" as="geometry">
            <mxPoint x="1345" y="480" as="sourcePoint" />
            <mxPoint x="1310" y="550" as="targetPoint" />
          </mxGeometry>
        </mxCell>
      </root>
    </mxGraphModel>
  </diagram>
</mxfile>
